# xmcd CD database file
#
# Track frame offsets:
#	150
#	12848
#	27085
#	39898
#	53250
#	66550
#	80935
#	93978
#	107623
#	122785
#	136985
#	148893
#	162048
#	176368
#	190650
#	204978
#	218073
#	233050
#
# Disc length: 3271 seconds
#
# Revision: 0
# Processed by: cddbd v1.4PL0 Copyright (c) Steve Scherf et al.
# Submitted via: CDex 1.40Release
#
DISCID=eb0cc512
DTITLE=Essential Blues - Essential Blues vol 1 disc 1
DYEAR=1900
DGENRE=Blues
TTITLE0=Lonnie Johnson - Mr Johnson's Swing
TTITLE1=Sleepy John Estes-I ain't gonna be Worried no More
TTITLE2=Brownie McGhee-Picking my Tomatoes
TTITLE3=Leadbelly - Good Morning Blues
TTITLE4=Big Bill Broonzy-Blue Cow blues
TTITLE5=Blind Willie McTell-Broke Down Engine
TTITLE6=Champion Jack Dupree - Gamblin Mans Blues
TTITLE7=Tampa Red-You Can't Get that Stuff no More
TTITLE8=Blind Boy Fuller-Baby you Gotta Change your Mind
TTITLE9=Blind Willie Johnson - I Know his Blood Can Make Me Whole
TTITLE10=Robert Johnson-Phonographic Blues
TTITLE11=Arthur Crudup-Gonna Follow my Baby
TTITLE12=Barbecue Bob - Shes Coming Back Some Cold Rainy Day
TTITLE13=Leroy Carr-Midnight Hour Blues
TTITLE14=Sonny Boy Williamson-Blue Bird Blues
TTITLE15=Bukka White-Pinebluff Arkansas
TTITLE16=Joe Turner-Rocks in my Head
TTITLE17=Roosevelt Sykes-15 cents a day
EXTD=ID3G: 0
EXTT0=
EXTT1=
EXTT2=
EXTT3=
EXTT4=
EXTT5=
EXTT6=
EXTT7=
EXTT8=
EXTT9=
EXTT10=
EXTT11=
EXTT12=
EXTT13=
EXTT14=
EXTT15=
EXTT16=
EXTT17=
PLAYORDER=
